<mxfile host="app.diagrams.net" modified="2023-12-03T23:17:13.366Z" agent="Mozilla/5.0 (Macintosh; Intel Mac OS X 10_15_7) AppleWebKit/537.36 (KHTML, like Gecko) Chrome/119.0.0.0 Safari/537.36" version="22.1.5" etag="8ZpHTbB_QrVIfZSpxeRn" type="github">
  <diagram name="Страница — 1" id="kYwDznEXY4-J3VB-H3dX">
    <mxGraphModel>
      <root>
        <mxCell id="0" />
        <mxCell id="1" parent="0" />
      </root>
    </mxGraphModel>
  </diagram>
</mxfile>
